<svg version="1.1" xmlns="http://www.w3.org/2000/svg" x="0px" y="0px" viewBox="0 0 512 512">
<g id="Layer_1">
</g>
<g id="Layer_2">
	<path d="M256,67.8c-102.6,0-186,83.4-186,186s83.4,186,186,186s186-83.4,186-186S358.6,67.8,256,67.8z M316.1,292.7
		c5.9,5.9,5.9,15.4,0,21.2c-2.9,2.9-6.8,4.4-10.6,4.4c-3.8,0-7.7-1.5-10.6-4.4L256,275l-38.9,38.9c-2.9,2.9-6.8,4.4-10.6,4.4
		c-3.8,0-7.7-1.5-10.6-4.4c-5.9-5.9-5.9-15.4,0-21.2l38.9-38.9l-38.9-38.9c-5.9-5.9-5.9-15.4,0-21.2c5.9-5.9,15.4-5.9,21.2,0
		l38.9,38.9l38.9-38.9c5.9-5.9,15.4-5.9,21.2,0c5.9,5.9,5.9,15.4,0,21.2l-38.9,38.9L316.1,292.7z"/>
</g>
</svg>
