<?xml version="1.0" encoding="UTF-8"?>
<svg id="solid" xmlns="http://www.w3.org/2000/svg" viewBox="0 0 64 64"   width="20px"
      height="20px">
  <path d="M59.5,24.32996h-19.91998l-6.15002-18.94995c-.20001-.62-.77997-1.03003-1.42999-1.03003s-1.22998,.41003-1.42999,1.03003l-6.15002,18.94995H4.5c-.65002,0-1.22998,.41003-1.42999,1.03003s.02002,1.29999,.54999,1.67999l16.10999,11.71002-6.14996,18.94c-.20001,.62,.01996,1.29999,.53998,1.67999,.53003,.38,1.23999,.38,1.77002,0l16.10999-11.71002,16.10999,11.71002c.27002,.19,.58002,.27997,.89001,.27997s.60999-.08997,.88-.27997c.52002-.38,.73999-1.06,.53998-1.67999l-6.14996-18.94,16.10999-11.71002c.52997-.38,.75-1.06,.54999-1.67999s-.77997-1.03003-1.42999-1.03003Z"/>
</svg>