<svg 
id="Layer_5" data-name="Layer 5" xmlns="http://www.w3.org/2000/svg" viewBox="12.5 12.5 75 75"
width="20px" height="20px"
><defs><style></style></defs><path class="cls-1" d="M81.19,38.94,62.39,36.2a.24.24,0,0,1-.18-.13L53.8,19a4.23,4.23,0,0,0-7.6,0l-8.41,17a.24.24,0,0,1-.18.13l-18.8,2.74a4.23,4.23,0,0,0-2.35,7.23l13.6,13.26a.21.21,0,0,1,.07.21L26.92,78.37a4.25,4.25,0,0,0,6.15,4.47L49.89,74a.22.22,0,0,1,.22,0l16.82,8.84a4.25,4.25,0,0,0,6.15-4.47L69.87,59.64a.21.21,0,0,1,.07-.21l13.6-13.26a4.23,4.23,0,0,0-2.35-7.23Z"/></svg>