<?xml version="1.0" encoding="UTF-8"?>
<svg id="Layer_2" data-name="Layer 2" xmlns="http://www.w3.org/2000/svg" viewBox="0 0 127.07 169.94">
  <defs>
    <style>
      .cls-1 {
        fill: #231f20;
      }
    </style>
  </defs>
  <g id="_ÉåÉCÉÑÅ__1" data-name="ÉåÉCÉÑÅ[_1">
    <g>
      <path class="cls-1" d="m116.95,44.53H10.05c-2.38,0-4.26,2.02-4.08,4.39l7.83,107.05c.71,7.91,7.34,13.96,15.28,13.96h68.86c7.94,0,14.57-6.06,15.28-13.96l7.83-107.05c.17-2.37-1.7-4.39-4.08-4.39Zm-81.08,107.56s-.08,0-.12,0c-2.02,0-3.69-1.61-3.76-3.64l-2.81-87.7c-.07-2.08,1.56-3.81,3.64-3.88,2.05-.07,3.82,1.56,3.88,3.64l2.81,87.7c.07,2.08-1.56,3.81-3.64,3.88Zm31.4-3.76c0,2.08-1.68,3.76-3.76,3.76s-3.76-1.68-3.76-3.76V60.63c0-2.08,1.68-3.76,3.76-3.76s3.76,1.68,3.76,3.76v87.7Zm27.75.11c-.06,2.04-1.73,3.66-3.76,3.66-.04,0-.07,0-.11,0-2.08-.06-3.71-1.79-3.65-3.87l2.51-87.7c.06-2.08,1.83-3.71,3.87-3.65,2.08.06,3.71,1.79,3.65,3.87l-2.51,87.7Z"/>
      <path class="cls-1" d="m115.65,19.34h-17.18v-3.5c0-8.73-7.1-15.84-15.84-15.84h-36.69c-8.73,0-15.84,7.1-15.84,15.84v3.5H11.42c-6.31,0-11.42,5.11-11.42,11.42v2.15c0,2.26,1.83,4.09,4.09,4.09h118.88c2.26,0,4.09-1.83,4.09-4.09v-2.15c0-6.31-5.11-11.42-11.42-11.42Zm-26.59,0h-49.55v-3.5c0-3.54,2.88-6.43,6.43-6.43h36.69c3.55,0,6.43,2.88,6.43,6.43v3.5Z"/>
    </g>
  </g>
</svg>