 <svg
      xmlns="http://www.w3.org/2000/svg"
      viewBox="0 0 50 50"
      width="20px"
      height="20px"
    >
      <path d="M 31 9 C 26.259259 9 22.491652 10.744212 19.478516 13.298828 C 16.465379 15.853444 14.167931 19.194885 12.148438 22.476562 C 10.128943 25.758242 8.3784564 28.992772 6.5820312 31.328125 C 4.7856062 33.663478 3.0666667 35 1 35 A 1.0001 1.0001 0 0 0 0 36.158203 L 0 44 L 1.0097656 44 C 4.3197656 44 6.109375 40.560547 6.109375 40.560547 C 6.239375 40.270547 6.5100781 40.06 6.8300781 40 L 6.9199219 40 C 7.3399219 39.96 7.7399219 40.180547 7.9199219 40.560547 C 7.9199219 40.560547 9.6597656 44 13.009766 44 C 16.369766 44 18.109375 40.560547 18.109375 40.560547 C 18.269375 40.210547 18.629766 39.990234 19.009766 39.990234 C 19.399766 39.990234 19.759922 40.210547 19.919922 40.560547 C 19.919922 40.560547 21.649766 44 25.009766 44 C 28.369766 44 30.109375 40.560547 30.109375 40.560547 C 30.269375 40.210547 30.629766 39.990234 31.009766 39.990234 C 31.399766 39.990234 31.759922 40.210547 31.919922 40.560547 C 31.919922 40.560547 33.649766 44 37.009766 44 C 40.369766 44 42.109375 40.560547 42.109375 40.560547 C 42.269375 40.210547 42.629766 39.990234 43.009766 39.990234 C 43.399766 39.990234 43.749922 40.210547 43.919922 40.560547 C 43.919922 40.560547 45.699766 44 49.009766 44 L 50 44 L 50 36.167969 A 1.0001 1.0001 0 0 0 49 35 C 44.233333 35 39.687989 33.319742 36.373047 30.685547 C 33.228161 28.186486 31.274416 24.863535 31.076172 21.318359 C 31.695056 21.171308 32.294583 20.852653 32.880859 20.382812 C 35.827055 23.46112 42 21.588588 42 17 C 42 13.840909 39.967407 11.709819 37.671875 10.544922 C 35.376343 9.3800248 32.778846 9 31 9 z M 31 11 C 32.471154 11 34.873657 11.369975 36.765625 12.330078 C 38.657593 13.290181 40 14.659091 40 17 C 40 20 35.380635 21.149021 33.869141 18.503906 A 1.0001 1.0001 0 0 0 32.248047 18.341797 C 31.495424 19.201937 30.875058 19.462217 30.353516 19.501953 C 29.831973 19.541693 29.31075 19.349578 28.792969 18.955078 C 28.275187 18.560578 27.798343 17.970072 27.474609 17.388672 C 27.150875 16.807272 27 16.208333 27 16 A 1.0001 1.0001 0 0 0 25.769531 15.013672 C 22.175632 15.147066 17.853071 18.384186 14.880859 21.916016 C 16.597914 19.273645 18.49464 16.75654 20.771484 14.826172 C 23.508348 12.505788 26.740741 11 31 11 z M 25 23 C 25.553 23 26 23.447 26 24 C 26 27.593 29.816688 32.343969 32.554688 34.167969 C 33.014688 34.474969 33.139031 35.094687 32.832031 35.554688 C 32.640031 35.843688 32.321047 36 31.998047 36 C 31.808047 36 31.616312 35.945031 31.445312 35.832031 C 28.324313 33.751031 24 28.481 24 24 C 24 23.447 24.447 23 25 23 z" />
    </svg>